<?xml version="1.0" encoding="UTF-8"?>
<svg xmlns="http://www.w3.org/2000/svg" viewBox="0 0 128 128">
  <defs>
    <linearGradient id="bg" x1="0" y1="0" x2="1" y2="1">
      <stop offset="0%" stop-color="#f7f1dc"/>
      <stop offset="100%" stop-color="#e6d6ac"/>
    </linearGradient>
  </defs>
  <rect x="8" y="8" width="112" height="112" rx="24" fill="url(#bg)"/>
  <path
    d="M78 25c-15 0-29 11-29 29v20c0 13 9 22 22 22h3c6 0 10-4 10-10v-2c0-6-4-10-10-10h-2c-5 0-8-3-8-8V54c0-8 6-14 14-14 10 0 18 8 18 18v8c0 18-14 32-32 32"
    fill="none"
    stroke="#503b1b"
    stroke-width="10"
    stroke-linecap="round"
    stroke-linejoin="round"/>
  <path
    d="M72 55c5 2 8 6 8 12"
    fill="none"
    stroke="#503b1b"
    stroke-width="8"
    stroke-linecap="round"/>
</svg>
